<svg xmlns="http://www.w3.org/2000/svg" xmlns:xlink="http://www.w3.org/1999/xlink" width="500" zoomAndPan="magnify" viewBox="0 0 375 374.999991" height="500" preserveAspectRatio="xMidYMid meet" version="1.0"><defs><g/><clipPath id="920c7f595c"><path d="M 91.132812 171.171875 L 283.867188 171.171875 L 283.867188 205.101562 L 91.132812 205.101562 Z M 91.132812 171.171875 " clip-rule="nonzero"/></clipPath></defs><rect x="-37.5" width="450" fill="#ffffff" y="-37.499999" height="449.999989" fill-opacity="1"/><rect x="-37.5" width="450" fill="#1f2122" y="-37.499999" height="449.999989" fill-opacity="1"/><g fill="#fbfdfa" fill-opacity="1"><g transform="translate(86.219839, 236.987672)"><g><path d="M 6.03125 0 L 6.03125 -1.40625 L 11.796875 -1.40625 C 15.441406 -1.40625 17.988281 -2.175781 19.4375 -3.71875 C 20.894531 -5.257812 21.625 -8.1875 21.625 -12.5 L 21.625 -88.015625 C 21.625 -92.128906 20.894531 -94.957031 19.4375 -96.5 C 17.988281 -98.050781 15.441406 -98.828125 11.796875 -98.828125 L 6.03125 -98.828125 L 6.03125 -100.234375 L 29.203125 -100.234375 L 65.96875 -10.53125 L 99.953125 -100.234375 L 121.421875 -100.234375 L 121.421875 -98.828125 L 117.921875 -98.828125 C 114.171875 -98.828125 111.59375 -98.050781 110.1875 -96.5 C 108.789062 -94.957031 108.09375 -92.035156 108.09375 -87.734375 L 108.09375 -12.5 C 108.09375 -8.1875 108.789062 -5.257812 110.1875 -3.71875 C 111.59375 -2.175781 114.171875 -1.40625 117.921875 -1.40625 L 121.421875 -1.40625 L 121.421875 0 L 86.046875 0 L 86.046875 -1.40625 L 89.84375 -1.40625 C 93.019531 -1.40625 95.3125 -2.175781 96.71875 -3.71875 C 98.125 -5.257812 98.828125 -8.1875 98.828125 -12.5 L 98.828125 -93.34375 L 63.59375 0 L 60.640625 0 L 23.015625 -91.953125 L 23.015625 -12.5 C 23.015625 -8.1875 23.738281 -5.257812 25.1875 -3.71875 C 26.644531 -2.175781 29.242188 -1.40625 32.984375 -1.40625 L 36.359375 -1.40625 L 36.359375 0 Z M 6.03125 0 "/></g></g></g><g fill="#fbfdfa" fill-opacity="1"><g transform="translate(215.919078, 236.987672)"><g><path d="M 36.21875 1.40625 C 30.226562 1.40625 25.148438 0.515625 20.984375 -1.265625 C 16.816406 -3.046875 13.679688 -5.382812 11.578125 -8.28125 C 9.472656 -11.1875 8.421875 -14.367188 8.421875 -17.828125 C 8.421875 -23.066406 10.804688 -25.6875 15.578125 -25.6875 C 15.671875 -8.5625 22.738281 0 36.78125 0 C 43.332031 0 48.382812 -1.894531 51.9375 -5.6875 C 55.488281 -9.476562 57.265625 -14.925781 57.265625 -22.03125 C 57.265625 -26.0625 56.492188 -29.429688 54.953125 -32.140625 C 53.410156 -34.859375 50.976562 -37.382812 47.65625 -39.71875 C 44.332031 -42.0625 39.957031 -44.59375 34.53125 -47.3125 C 30.039062 -49.644531 26.015625 -52.023438 22.453125 -54.453125 C 18.898438 -56.890625 16.09375 -59.882812 14.03125 -63.4375 C 11.976562 -67 10.953125 -71.539062 10.953125 -77.0625 C 10.953125 -84.550781 13.382812 -90.515625 18.25 -94.953125 C 23.113281 -99.398438 29.710938 -101.625 38.046875 -101.625 C 43.003906 -101.625 47.351562 -100.898438 51.09375 -99.453125 C 54.84375 -98.003906 57.769531 -96.085938 59.875 -93.703125 C 61.976562 -91.316406 63.03125 -88.671875 63.03125 -85.765625 C 63.03125 -83.523438 62.347656 -81.769531 60.984375 -80.5 C 59.628906 -79.238281 57.738281 -78.609375 55.3125 -78.609375 C 55.3125 -86.097656 53.90625 -91.570312 51.09375 -95.03125 C 48.289062 -98.5 43.894531 -100.234375 37.90625 -100.234375 C 31.914062 -100.234375 27.28125 -98.40625 24 -94.75 C 20.726562 -91.101562 19.09375 -86.003906 19.09375 -79.453125 C 19.09375 -75.148438 19.863281 -71.617188 21.40625 -68.859375 C 22.945312 -66.097656 25.285156 -63.6875 28.421875 -61.625 C 31.554688 -59.5625 35.414062 -57.363281 40 -55.03125 C 44.5 -52.6875 48.6875 -50.296875 52.5625 -47.859375 C 56.445312 -45.429688 59.609375 -42.4375 62.046875 -38.875 C 64.484375 -35.320312 65.703125 -30.738281 65.703125 -25.125 C 65.703125 -17.164062 63.148438 -10.753906 58.046875 -5.890625 C 52.941406 -1.023438 45.664062 1.40625 36.21875 1.40625 Z M 36.21875 1.40625 "/></g></g></g><g clip-path="url(#920c7f595c)"><path fill="#1f2122" d="M 91.132812 171.171875 L 283.867188 171.171875 L 283.867188 205.101562 L 91.132812 205.101562 Z M 91.132812 171.171875 " fill-opacity="1" fill-rule="nonzero"/></g><g fill="#fbfdfa" fill-opacity="1"><g transform="translate(108.365974, 192.66047)"><g><path d="M 0.5625 0 L 0.5625 -0.125 L 1.09375 -0.125 C 1.4375 -0.125 1.671875 -0.195312 1.796875 -0.34375 C 1.929688 -0.488281 2 -0.757812 2 -1.15625 L 2 -8.171875 C 2 -8.554688 1.929688 -8.816406 1.796875 -8.953125 C 1.671875 -9.097656 1.4375 -9.171875 1.09375 -9.171875 L 0.5625 -9.171875 L 0.5625 -9.296875 L 2.703125 -9.296875 L 6.125 -0.984375 L 9.28125 -9.296875 L 11.265625 -9.296875 L 11.265625 -9.171875 L 10.953125 -9.171875 C 10.597656 -9.171875 10.351562 -9.097656 10.21875 -8.953125 C 10.09375 -8.816406 10.03125 -8.546875 10.03125 -8.140625 L 10.03125 -1.15625 C 10.03125 -0.757812 10.09375 -0.488281 10.21875 -0.34375 C 10.351562 -0.195312 10.597656 -0.125 10.953125 -0.125 L 11.265625 -0.125 L 11.265625 0 L 7.984375 0 L 7.984375 -0.125 L 8.34375 -0.125 C 8.632812 -0.125 8.84375 -0.195312 8.96875 -0.34375 C 9.101562 -0.488281 9.171875 -0.757812 9.171875 -1.15625 L 9.171875 -8.671875 L 5.90625 0 L 5.625 0 L 2.140625 -8.53125 L 2.140625 -1.15625 C 2.140625 -0.757812 2.207031 -0.488281 2.34375 -0.34375 C 2.476562 -0.195312 2.71875 -0.125 3.0625 -0.125 L 3.375 -0.125 L 3.375 0 Z M 0.5625 0 "/></g></g></g><g fill="#fbfdfa" fill-opacity="1"><g transform="translate(125.295922, 192.66047)"><g><path d="M -0.03125 0 L -0.03125 -0.125 L 0.296875 -0.125 C 0.585938 -0.125 0.789062 -0.175781 0.90625 -0.28125 C 1.03125 -0.394531 1.15625 -0.625 1.28125 -0.96875 L 4.171875 -9.296875 L 4.59375 -9.296875 L 7.734375 -0.796875 C 7.828125 -0.523438 7.921875 -0.34375 8.015625 -0.25 C 8.117188 -0.164062 8.285156 -0.125 8.515625 -0.125 L 8.734375 -0.125 L 8.734375 0 L 5.546875 0 L 5.546875 -0.125 L 5.9375 -0.125 C 6.269531 -0.125 6.492188 -0.160156 6.609375 -0.234375 C 6.722656 -0.304688 6.78125 -0.425781 6.78125 -0.59375 C 6.78125 -0.695312 6.753906 -0.835938 6.703125 -1.015625 C 6.648438 -1.203125 6.601562 -1.359375 6.5625 -1.484375 L 5.859375 -3.375 L 2.265625 -3.375 L 1.609375 -1.53125 C 1.578125 -1.414062 1.53125 -1.265625 1.46875 -1.078125 C 1.414062 -0.898438 1.390625 -0.753906 1.390625 -0.640625 C 1.390625 -0.453125 1.460938 -0.316406 1.609375 -0.234375 C 1.753906 -0.160156 2.03125 -0.125 2.4375 -0.125 L 2.9375 -0.125 L 2.9375 0 Z M 2.3125 -3.5 L 5.828125 -3.5 L 4.828125 -6.296875 C 4.679688 -6.691406 4.535156 -7.09375 4.390625 -7.5 C 4.253906 -7.914062 4.140625 -8.28125 4.046875 -8.59375 C 3.953125 -8.300781 3.835938 -7.960938 3.703125 -7.578125 C 3.566406 -7.203125 3.441406 -6.832031 3.328125 -6.46875 Z M 2.3125 -3.5 "/></g></g></g><g fill="#fbfdfa" fill-opacity="1"><g transform="translate(139.020185, 192.66047)"><g><path d="M 0.5625 0 L 0.5625 -0.125 L 0.90625 -0.125 C 1.25 -0.125 1.488281 -0.195312 1.625 -0.34375 C 1.757812 -0.488281 1.828125 -0.757812 1.828125 -1.15625 L 1.828125 -8.171875 C 1.828125 -8.554688 1.757812 -8.816406 1.625 -8.953125 C 1.488281 -9.097656 1.25 -9.171875 0.90625 -9.171875 L 0.5625 -9.171875 L 0.5625 -9.296875 L 3.671875 -9.296875 C 4.785156 -9.296875 5.597656 -9.097656 6.109375 -8.703125 C 6.628906 -8.316406 6.890625 -7.71875 6.890625 -6.90625 C 6.890625 -6.40625 6.789062 -5.984375 6.59375 -5.640625 C 6.40625 -5.304688 6.15625 -5.035156 5.84375 -4.828125 C 5.53125 -4.628906 5.191406 -4.484375 4.828125 -4.390625 L 6.828125 -1.34375 C 7.148438 -0.851562 7.40625 -0.523438 7.59375 -0.359375 C 7.78125 -0.203125 7.972656 -0.125 8.171875 -0.125 L 8.265625 -0.125 L 8.265625 0 L 8.125 0 C 7.675781 0 7.328125 -0.03125 7.078125 -0.09375 C 6.835938 -0.15625 6.628906 -0.269531 6.453125 -0.4375 C 6.285156 -0.601562 6.101562 -0.84375 5.90625 -1.15625 L 3.875 -4.3125 L 2.703125 -4.3125 L 2.703125 -1.15625 C 2.703125 -0.757812 2.769531 -0.488281 2.90625 -0.34375 C 3.039062 -0.195312 3.28125 -0.125 3.625 -0.125 L 3.96875 -0.125 L 3.96875 0 Z M 2.703125 -4.4375 L 3.8125 -4.4375 C 4.507812 -4.4375 5.039062 -4.628906 5.40625 -5.015625 C 5.78125 -5.410156 5.96875 -6.019531 5.96875 -6.84375 C 5.96875 -7.644531 5.800781 -8.234375 5.46875 -8.609375 C 5.144531 -8.984375 4.5625 -9.171875 3.71875 -9.171875 L 2.703125 -9.171875 Z M 2.703125 -4.4375 "/></g></g></g><g fill="#fbfdfa" fill-opacity="1"><g transform="translate(152.079856, 192.66047)"><g><path d="M 0.5625 0 L 0.5625 -0.125 L 0.90625 -0.125 C 1.25 -0.125 1.488281 -0.195312 1.625 -0.34375 C 1.757812 -0.488281 1.828125 -0.757812 1.828125 -1.15625 L 1.828125 -8.171875 C 1.828125 -8.554688 1.757812 -8.816406 1.625 -8.953125 C 1.488281 -9.097656 1.25 -9.171875 0.90625 -9.171875 L 0.5625 -9.171875 L 0.5625 -9.296875 L 3.96875 -9.296875 L 3.96875 -9.171875 L 3.625 -9.171875 C 3.28125 -9.171875 3.039062 -9.097656 2.90625 -8.953125 C 2.769531 -8.816406 2.703125 -8.546875 2.703125 -8.140625 L 2.703125 -1.15625 C 2.703125 -0.757812 2.769531 -0.488281 2.90625 -0.34375 C 3.039062 -0.195312 3.28125 -0.125 3.625 -0.125 L 3.96875 -0.125 L 3.96875 0 Z M 0.5625 0 "/></g></g></g><g fill="#fbfdfa" fill-opacity="1"><g transform="translate(161.503807, 192.66047)"><g><path d="M -0.03125 0 L -0.03125 -0.125 L 0.296875 -0.125 C 0.585938 -0.125 0.789062 -0.175781 0.90625 -0.28125 C 1.03125 -0.394531 1.15625 -0.625 1.28125 -0.96875 L 4.171875 -9.296875 L 4.59375 -9.296875 L 7.734375 -0.796875 C 7.828125 -0.523438 7.921875 -0.34375 8.015625 -0.25 C 8.117188 -0.164062 8.285156 -0.125 8.515625 -0.125 L 8.734375 -0.125 L 8.734375 0 L 5.546875 0 L 5.546875 -0.125 L 5.9375 -0.125 C 6.269531 -0.125 6.492188 -0.160156 6.609375 -0.234375 C 6.722656 -0.304688 6.78125 -0.425781 6.78125 -0.59375 C 6.78125 -0.695312 6.753906 -0.835938 6.703125 -1.015625 C 6.648438 -1.203125 6.601562 -1.359375 6.5625 -1.484375 L 5.859375 -3.375 L 2.265625 -3.375 L 1.609375 -1.53125 C 1.578125 -1.414062 1.53125 -1.265625 1.46875 -1.078125 C 1.414062 -0.898438 1.390625 -0.753906 1.390625 -0.640625 C 1.390625 -0.453125 1.460938 -0.316406 1.609375 -0.234375 C 1.753906 -0.160156 2.03125 -0.125 2.4375 -0.125 L 2.9375 -0.125 L 2.9375 0 Z M 2.3125 -3.5 L 5.828125 -3.5 L 4.828125 -6.296875 C 4.679688 -6.691406 4.535156 -7.09375 4.390625 -7.5 C 4.253906 -7.914062 4.140625 -8.28125 4.046875 -8.59375 C 3.953125 -8.300781 3.835938 -7.960938 3.703125 -7.578125 C 3.566406 -7.203125 3.441406 -6.832031 3.328125 -6.46875 Z M 2.3125 -3.5 "/></g></g></g><g fill="#fbfdfa" fill-opacity="1"><g transform="translate(175.228071, 192.66047)"><g><path d="M 0.5625 0 L 0.5625 -0.125 L 1.09375 -0.125 C 1.4375 -0.125 1.671875 -0.195312 1.796875 -0.34375 C 1.929688 -0.488281 2 -0.757812 2 -1.15625 L 2 -8.171875 C 2 -8.554688 1.929688 -8.816406 1.796875 -8.953125 C 1.671875 -9.097656 1.4375 -9.171875 1.09375 -9.171875 L 0.5625 -9.171875 L 0.5625 -9.296875 L 2.703125 -9.296875 L 6.125 -0.984375 L 9.28125 -9.296875 L 11.265625 -9.296875 L 11.265625 -9.171875 L 10.953125 -9.171875 C 10.597656 -9.171875 10.351562 -9.097656 10.21875 -8.953125 C 10.09375 -8.816406 10.03125 -8.546875 10.03125 -8.140625 L 10.03125 -1.15625 C 10.03125 -0.757812 10.09375 -0.488281 10.21875 -0.34375 C 10.351562 -0.195312 10.597656 -0.125 10.953125 -0.125 L 11.265625 -0.125 L 11.265625 0 L 7.984375 0 L 7.984375 -0.125 L 8.34375 -0.125 C 8.632812 -0.125 8.84375 -0.195312 8.96875 -0.34375 C 9.101562 -0.488281 9.171875 -0.757812 9.171875 -1.15625 L 9.171875 -8.671875 L 5.90625 0 L 5.625 0 L 2.140625 -8.53125 L 2.140625 -1.15625 C 2.140625 -0.757812 2.207031 -0.488281 2.34375 -0.34375 C 2.476562 -0.195312 2.71875 -0.125 3.0625 -0.125 L 3.375 -0.125 L 3.375 0 Z M 0.5625 0 "/></g></g></g><g fill="#fbfdfa" fill-opacity="1"><g transform="translate(192.158018, 192.66047)"><g/></g></g><g fill="#fbfdfa" fill-opacity="1"><g transform="translate(199.979133, 192.66047)"><g><path d="M 3.359375 0.125 C 2.804688 0.125 2.335938 0.046875 1.953125 -0.109375 C 1.566406 -0.273438 1.273438 -0.492188 1.078125 -0.765625 C 0.878906 -1.035156 0.78125 -1.332031 0.78125 -1.65625 C 0.78125 -2.144531 1.003906 -2.390625 1.453125 -2.390625 C 1.453125 -0.796875 2.109375 0 3.421875 0 C 4.023438 0 4.488281 -0.175781 4.8125 -0.53125 C 5.144531 -0.882812 5.3125 -1.390625 5.3125 -2.046875 C 5.3125 -2.421875 5.238281 -2.734375 5.09375 -2.984375 C 4.957031 -3.234375 4.734375 -3.46875 4.421875 -3.6875 C 4.117188 -3.90625 3.710938 -4.140625 3.203125 -4.390625 C 2.785156 -4.609375 2.410156 -4.828125 2.078125 -5.046875 C 1.753906 -5.273438 1.492188 -5.554688 1.296875 -5.890625 C 1.109375 -6.222656 1.015625 -6.644531 1.015625 -7.15625 C 1.015625 -7.851562 1.238281 -8.40625 1.6875 -8.8125 C 2.144531 -9.226562 2.757812 -9.4375 3.53125 -9.4375 C 3.988281 -9.4375 4.390625 -9.367188 4.734375 -9.234375 C 5.085938 -9.097656 5.359375 -8.914062 5.546875 -8.6875 C 5.742188 -8.46875 5.84375 -8.226562 5.84375 -7.96875 C 5.84375 -7.757812 5.78125 -7.59375 5.65625 -7.46875 C 5.53125 -7.351562 5.359375 -7.296875 5.140625 -7.296875 C 5.140625 -7.992188 5.007812 -8.5 4.75 -8.8125 C 4.488281 -9.132812 4.078125 -9.296875 3.515625 -9.296875 C 2.960938 -9.296875 2.53125 -9.125 2.21875 -8.78125 C 1.914062 -8.445312 1.765625 -7.976562 1.765625 -7.375 C 1.765625 -6.976562 1.835938 -6.648438 1.984375 -6.390625 C 2.128906 -6.128906 2.347656 -5.90625 2.640625 -5.71875 C 2.929688 -5.53125 3.289062 -5.328125 3.71875 -5.109375 C 4.132812 -4.890625 4.519531 -4.664062 4.875 -4.4375 C 5.238281 -4.21875 5.53125 -3.941406 5.75 -3.609375 C 5.976562 -3.273438 6.09375 -2.847656 6.09375 -2.328125 C 6.09375 -1.585938 5.851562 -0.992188 5.375 -0.546875 C 4.90625 -0.0976562 4.234375 0.125 3.359375 0.125 Z M 3.359375 0.125 "/></g></g></g><g fill="#fbfdfa" fill-opacity="1"><g transform="translate(211.631432, 192.66047)"><g><path d="M 4.671875 0.125 C 3.785156 0.125 3.050781 -0.0664062 2.46875 -0.453125 C 1.894531 -0.847656 1.460938 -1.398438 1.171875 -2.109375 C 0.890625 -2.828125 0.75 -3.679688 0.75 -4.671875 C 0.75 -5.660156 0.890625 -6.507812 1.171875 -7.21875 C 1.460938 -7.925781 1.898438 -8.472656 2.484375 -8.859375 C 3.066406 -9.253906 3.796875 -9.453125 4.671875 -9.453125 C 5.984375 -9.453125 6.960938 -9.019531 7.609375 -8.15625 C 8.265625 -7.300781 8.59375 -6.140625 8.59375 -4.671875 C 8.59375 -3.703125 8.445312 -2.859375 8.15625 -2.140625 C 7.875 -1.421875 7.441406 -0.863281 6.859375 -0.46875 C 6.273438 -0.0703125 5.546875 0.125 4.671875 0.125 Z M 4.671875 0 C 5.710938 0 6.460938 -0.382812 6.921875 -1.15625 C 7.390625 -1.925781 7.625 -3.097656 7.625 -4.671875 C 7.625 -6.242188 7.394531 -7.410156 6.9375 -8.171875 C 6.476562 -8.929688 5.722656 -9.3125 4.671875 -9.3125 C 3.660156 -9.3125 2.910156 -8.929688 2.421875 -8.171875 C 1.929688 -7.410156 1.6875 -6.242188 1.6875 -4.671875 C 1.6875 -3.097656 1.929688 -1.925781 2.421875 -1.15625 C 2.910156 -0.382812 3.660156 0 4.671875 0 Z M 4.671875 0 "/></g></g></g><g fill="#fbfdfa" fill-opacity="1"><g transform="translate(225.863922, 192.66047)"><g><path d="M 5.0625 0.125 C 4.082031 0.125 3.273438 -0.0703125 2.640625 -0.46875 C 2.003906 -0.863281 1.53125 -1.421875 1.21875 -2.140625 C 0.90625 -2.859375 0.75 -3.703125 0.75 -4.671875 C 0.75 -5.628906 0.914062 -6.46875 1.25 -7.1875 C 1.582031 -7.90625 2.066406 -8.457031 2.703125 -8.84375 C 3.347656 -9.238281 4.132812 -9.4375 5.0625 -9.4375 C 6 -9.4375 6.691406 -9.289062 7.140625 -9 C 7.585938 -8.71875 7.8125 -8.375 7.8125 -7.96875 C 7.8125 -7.726562 7.742188 -7.546875 7.609375 -7.421875 C 7.484375 -7.296875 7.273438 -7.222656 6.984375 -7.203125 C 6.984375 -7.941406 6.84375 -8.472656 6.5625 -8.796875 C 6.28125 -9.128906 5.765625 -9.296875 5.015625 -9.296875 C 3.910156 -9.296875 3.082031 -8.921875 2.53125 -8.171875 C 1.976562 -7.421875 1.703125 -6.253906 1.703125 -4.671875 C 1.703125 -3.085938 1.972656 -1.910156 2.515625 -1.140625 C 3.066406 -0.378906 3.972656 0 5.234375 0 C 5.535156 0 5.832031 -0.0195312 6.125 -0.0625 C 6.414062 -0.113281 6.664062 -0.179688 6.875 -0.265625 L 6.875 -3.015625 C 6.875 -3.410156 6.804688 -3.691406 6.671875 -3.859375 C 6.535156 -4.035156 6.296875 -4.125 5.953125 -4.125 L 5.734375 -4.125 L 5.734375 -4.25 L 8.71875 -4.25 L 8.71875 -4.125 L 8.578125 -4.125 C 8.242188 -4.125 8.019531 -4.050781 7.90625 -3.90625 C 7.800781 -3.757812 7.75 -3.488281 7.75 -3.09375 L 7.75 -0.40625 C 7.351562 -0.21875 6.941406 -0.0820312 6.515625 0 C 6.085938 0.0820312 5.601562 0.125 5.0625 0.125 Z M 5.0625 0.125 "/></g></g></g><g fill="#fbfdfa" fill-opacity="1"><g transform="translate(239.640318, 192.66047)"><g><path d="M 4.671875 0.125 C 3.785156 0.125 3.050781 -0.0664062 2.46875 -0.453125 C 1.894531 -0.847656 1.460938 -1.398438 1.171875 -2.109375 C 0.890625 -2.828125 0.75 -3.679688 0.75 -4.671875 C 0.75 -5.660156 0.890625 -6.507812 1.171875 -7.21875 C 1.460938 -7.925781 1.898438 -8.472656 2.484375 -8.859375 C 3.066406 -9.253906 3.796875 -9.453125 4.671875 -9.453125 C 5.984375 -9.453125 6.960938 -9.019531 7.609375 -8.15625 C 8.265625 -7.300781 8.59375 -6.140625 8.59375 -4.671875 C 8.59375 -3.703125 8.445312 -2.859375 8.15625 -2.140625 C 7.875 -1.421875 7.441406 -0.863281 6.859375 -0.46875 C 6.273438 -0.0703125 5.546875 0.125 4.671875 0.125 Z M 4.671875 0 C 5.710938 0 6.460938 -0.382812 6.921875 -1.15625 C 7.390625 -1.925781 7.625 -3.097656 7.625 -4.671875 C 7.625 -6.242188 7.394531 -7.410156 6.9375 -8.171875 C 6.476562 -8.929688 5.722656 -9.3125 4.671875 -9.3125 C 3.660156 -9.3125 2.910156 -8.929688 2.421875 -8.171875 C 1.929688 -7.410156 1.6875 -6.242188 1.6875 -4.671875 C 1.6875 -3.097656 1.929688 -1.925781 2.421875 -1.15625 C 2.910156 -0.382812 3.660156 0 4.671875 0 Z M 4.671875 0 "/></g></g></g><g fill="#fbfdfa" fill-opacity="1"><g transform="translate(253.872808, 192.66047)"><g><path d="M 0.578125 0 L 0.578125 -0.125 L 0.90625 -0.125 C 1.25 -0.125 1.488281 -0.195312 1.625 -0.34375 C 1.757812 -0.488281 1.828125 -0.757812 1.828125 -1.15625 L 1.828125 -8.171875 C 1.828125 -8.554688 1.757812 -8.816406 1.625 -8.953125 C 1.488281 -9.097656 1.25 -9.171875 0.90625 -9.171875 L 0.578125 -9.171875 L 0.578125 -9.296875 L 3.890625 -9.296875 C 4.941406 -9.296875 5.722656 -9.113281 6.234375 -8.75 C 6.753906 -8.394531 7.015625 -7.835938 7.015625 -7.078125 C 7.015625 -6.410156 6.820312 -5.90625 6.4375 -5.5625 C 6.0625 -5.226562 5.53125 -5.019531 4.84375 -4.9375 L 4.84375 -4.90625 C 5.75 -4.851562 6.398438 -4.617188 6.796875 -4.203125 C 7.203125 -3.796875 7.40625 -3.242188 7.40625 -2.546875 C 7.40625 -1.679688 7.144531 -1.039062 6.625 -0.625 C 6.101562 -0.207031 5.320312 0 4.28125 0 Z M 2.703125 -4.953125 L 3.859375 -4.953125 C 4.710938 -4.953125 5.296875 -5.117188 5.609375 -5.453125 C 5.921875 -5.785156 6.078125 -6.3125 6.078125 -7.03125 C 6.078125 -7.800781 5.90625 -8.347656 5.5625 -8.671875 C 5.226562 -9.003906 4.648438 -9.171875 3.828125 -9.171875 L 2.703125 -9.171875 Z M 2.703125 -0.125 L 4.21875 -0.125 C 5.039062 -0.125 5.617188 -0.316406 5.953125 -0.703125 C 6.296875 -1.085938 6.46875 -1.695312 6.46875 -2.53125 C 6.46875 -3.332031 6.304688 -3.914062 5.984375 -4.28125 C 5.660156 -4.644531 5.09375 -4.828125 4.28125 -4.828125 L 2.703125 -4.828125 Z M 2.703125 -0.125 "/></g></g></g><g fill="#fbfdfa" fill-opacity="1"><g transform="translate(267.088856, 192.66047)"><g><path d="M -0.03125 0 L -0.03125 -0.125 L 0.296875 -0.125 C 0.585938 -0.125 0.789062 -0.175781 0.90625 -0.28125 C 1.03125 -0.394531 1.15625 -0.625 1.28125 -0.96875 L 4.171875 -9.296875 L 4.59375 -9.296875 L 7.734375 -0.796875 C 7.828125 -0.523438 7.921875 -0.34375 8.015625 -0.25 C 8.117188 -0.164062 8.285156 -0.125 8.515625 -0.125 L 8.734375 -0.125 L 8.734375 0 L 5.546875 0 L 5.546875 -0.125 L 5.9375 -0.125 C 6.269531 -0.125 6.492188 -0.160156 6.609375 -0.234375 C 6.722656 -0.304688 6.78125 -0.425781 6.78125 -0.59375 C 6.78125 -0.695312 6.753906 -0.835938 6.703125 -1.015625 C 6.648438 -1.203125 6.601562 -1.359375 6.5625 -1.484375 L 5.859375 -3.375 L 2.265625 -3.375 L 1.609375 -1.53125 C 1.578125 -1.414062 1.53125 -1.265625 1.46875 -1.078125 C 1.414062 -0.898438 1.390625 -0.753906 1.390625 -0.640625 C 1.390625 -0.453125 1.460938 -0.316406 1.609375 -0.234375 C 1.753906 -0.160156 2.03125 -0.125 2.4375 -0.125 L 2.9375 -0.125 L 2.9375 0 Z M 2.3125 -3.5 L 5.828125 -3.5 L 4.828125 -6.296875 C 4.679688 -6.691406 4.535156 -7.09375 4.390625 -7.5 C 4.253906 -7.914062 4.140625 -8.28125 4.046875 -8.59375 C 3.953125 -8.300781 3.835938 -7.960938 3.703125 -7.578125 C 3.566406 -7.203125 3.441406 -6.832031 3.328125 -6.46875 Z M 2.3125 -3.5 "/></g></g></g></svg>